<?xml version="1.0" encoding="UTF-8" standalone="no"?>
<!-- Created with Inkscape (http://www.inkscape.org/) -->

<svg
   xmlns:dc="http://purl.org/dc/elements/1.1/"
   xmlns:cc="http://creativecommons.org/ns#"
   xmlns:rdf="http://www.w3.org/1999/02/22-rdf-syntax-ns#"
   xmlns:svg="http://www.w3.org/2000/svg"
   xmlns="http://www.w3.org/2000/svg"
   xmlns:sodipodi="http://sodipodi.sourceforge.net/DTD/sodipodi-0.dtd"
   xmlns:inkscape="http://www.inkscape.org/namespaces/inkscape"
   width="93.775673mm"
   height="52.256378mm"
   viewBox="0 0 93.775675 52.256378"
   version="1.1"
   id="svg8"
   inkscape:version="0.92.4 5da689c313, 2019-01-14"
   sodipodi:docname="logo.svg"
   inkscape:export-filename="/home/pawel/Documents/CTN/goida-logo-black.png"
   inkscape:export-xdpi="96.275597"
   inkscape:export-ydpi="96.275597">
  <defs
     id="defs2">
    <inkscape:perspective
       sodipodi:type="inkscape:persp3d"
       inkscape:vp_x="0 : 242.05134 : 1"
       inkscape:vp_y="0 : 1629.9752 : 0"
       inkscape:vp_z="274.14095 : 148.49999 : 1"
       inkscape:persp3d-origin="137.07049 : 98.999995 : 1"
       id="perspective5136" />
    <clipPath
       clipPathUnits="userSpaceOnUse"
       id="clipPath1447">
      <path
         style="opacity:1;fill:#4d4d4d;fill-opacity:1;stroke:none;stroke-width:0.34390572;stroke-miterlimit:4;stroke-dasharray:none;stroke-dashoffset:0;stroke-opacity:1"
         d="m -451.45456,384.0569 c 0.46463,-0.46463 0.74709,-1.11164 0.73872,-1.83203 l -0.14104,-12.17506 c -0.0167,-1.44081 -1.19012,-2.61422 -2.63093,-2.63093 l -12.17537,-0.14136 c -1.4408,-0.0167 -2.58724,1.12971 -2.57051,2.57051 l 0.0399,3.44093 -0.7548,-0.008 c -1.17881,-0.0137 -2.1169,0.9244 -2.10321,2.10321 l 0.11568,9.96153 c 0.0137,1.17881 0.97379,2.13892 2.15261,2.15261 l 9.96152,0.11568 c 1.17882,0.0137 2.11691,-0.9244 2.10322,-2.10322 l -0.009,-0.75455 3.44117,0.0396 c 0.7204,0.008 1.36717,-0.27385 1.83179,-0.73847 z"
         id="path1449"
         inkscape:connector-curvature="0" />
    </clipPath>
    <clipPath
       clipPathUnits="userSpaceOnUse"
       id="clipPath1451">
      <path
         style="opacity:1;fill:#4d4d4d;fill-opacity:1;stroke:none;stroke-width:0.45442298;stroke-miterlimit:4;stroke-dasharray:none;stroke-dashoffset:0;stroke-opacity:1"
         d="m -11.519725,-636.80205 c -0.621103,0.62111 -1.00429,1.48043 -1.004276,2.43227 l -3.47e-4,16.08654 c -8e-6,1.9037 1.532589,3.4363 3.4362904,3.43629 l 16.0869549,6e-5 c 1.9036826,10e-6 3.4362227,-1.53253 3.4362157,-3.43621 l 5.3e-5,-4.54641 0.997292,-3.3e-4 c 1.557532,10e-6 2.811556,-1.25401 2.811542,-2.81154 l -8.8e-5,-13.16187 c -1.3e-5,-1.55753 -1.254017,-2.81154 -2.811546,-2.81155 l -13.1618707,-9e-5 c -1.5575299,-1e-5 -2.8115535,1.25401 -2.8115421,2.81154 l -1.24e-5,0.99697 -4.5467264,3.8e-4 c -0.9518334,-10e-6 -1.8108364,0.38285 -2.4319394,1.00395 z"
         id="path1453"
         inkscape:connector-curvature="0" />
    </clipPath>
    <clipPath
       clipPathUnits="userSpaceOnUse"
       id="clipPath1455">
      <path
         style="opacity:1;fill:#4d4d4d;fill-opacity:1;stroke:none;stroke-width:0.45442298;stroke-miterlimit:4;stroke-dasharray:none;stroke-dashoffset:0;stroke-opacity:1"
         d="m -11.519725,-636.80205 c -0.621103,0.62111 -1.00429,1.48043 -1.004276,2.43227 l -3.47e-4,16.08654 c -8e-6,1.9037 1.532589,3.4363 3.4362904,3.43629 l 16.0869549,6e-5 c 1.9036826,10e-6 3.4362227,-1.53253 3.4362157,-3.43621 l 5.3e-5,-4.54641 0.997292,-3.3e-4 c 1.557532,10e-6 2.811556,-1.25401 2.811542,-2.81154 l -8.8e-5,-13.16187 c -1.3e-5,-1.55753 -1.254017,-2.81154 -2.811546,-2.81155 l -13.1618707,-9e-5 c -1.5575299,-1e-5 -2.8115535,1.25401 -2.8115421,2.81154 l -1.24e-5,0.99697 -4.5467264,3.8e-4 c -0.9518334,-10e-6 -1.8108364,0.38285 -2.4319394,1.00395 z"
         id="path1457"
         inkscape:connector-curvature="0" />
    </clipPath>
  </defs>
  <sodipodi:namedview
     id="base"
     pagecolor="#ffffff"
     bordercolor="#666666"
     borderopacity="1.0"
     inkscape:pageopacity="0"
     inkscape:pageshadow="2"
     inkscape:zoom="0.28717054"
     inkscape:cx="683.68479"
     inkscape:cy="284.96156"
     inkscape:document-units="mm"
     inkscape:current-layer="layer1"
     showgrid="false"
     inkscape:window-width="1920"
     inkscape:window-height="1080"
     inkscape:window-x="0"
     inkscape:window-y="0"
     inkscape:window-maximized="0"
     inkscape:snap-global="false"
     showguides="false"
     fit-margin-top="0"
     fit-margin-left="0"
     fit-margin-right="0"
     fit-margin-bottom="0"
     inkscape:snap-center="true"
     inkscape:guide-bbox="true"
     inkscape:lockguides="true"
     inkscape:snap-grids="true"
     viewbox-height="100"
     inkscape:pagecheckerboard="true">
    <sodipodi:guide
       position="212.7137,238.51678"
       orientation="1,0"
       id="guide1319"
       inkscape:locked="true" />
    <sodipodi:guide
       position="117.47442,237.93968"
       orientation="1,0"
       id="guide1321"
       inkscape:locked="true" />
    <inkscape:grid
       type="xygrid"
       id="grid5015"
       originx="-26.509106"
       originy="-24.523283" />
    <sodipodi:guide
       position="-254.05937,494.00435"
       orientation="1,0"
       id="guide5035"
       inkscape:locked="true" />
    <sodipodi:guide
       position="-159.55419,507.50509"
       orientation="1,0"
       id="guide5037"
       inkscape:locked="true" />
    <sodipodi:guide
       position="206.84766,238.27043"
       orientation="1,0"
       id="guide5167"
       inkscape:locked="true" />
  </sodipodi:namedview>
  <metadata
     id="metadata5">
    <rdf:RDF>
      <cc:Work
         rdf:about="">
        <dc:format>image/svg+xml</dc:format>
        <dc:type
           rdf:resource="http://purl.org/dc/dcmitype/StillImage" />
        <dc:title></dc:title>
      </cc:Work>
    </rdf:RDF>
  </metadata>
  <g
     inkscape:groupmode="layer"
     id="layer2"
     inkscape:label="frames"
     style="display:inline"
     transform="translate(-46.536165,-436.35442)" />
  <g
     inkscape:label="Layer 1"
     inkscape:groupmode="layer"
     id="layer1"
     transform="translate(842.28266,-547.05285)">
    <text
       xml:space="preserve"
       style="font-style:normal;font-variant:normal;font-weight:normal;font-stretch:normal;font-size:10.58333302px;line-height:1.25;font-family:Montserrat;-inkscape-font-specification:Montserrat;letter-spacing:0px;word-spacing:0px;fill:#000000;fill-opacity:1;stroke:none;stroke-width:0.26458332"
       x="0"
       y="0"
       id="text859"><tspan
         sodipodi:role="line"
         id="tspan857"
         x="0"
         y="9.7270727"
         style="stroke-width:0.26458332" /></text>
    <g
       id="g6490"
       transform="matrix(0.76103618,0,0,0.76103618,-1695.9283,590.34654)"
       style="fill:#333333;fill-opacity:1" />
    <g
       style="fill:#333333;fill-opacity:1"
       transform="matrix(0.76103618,0,0,0.76103618,-2440.7668,654.16135)"
       id="g1102" />
    <g
       id="g5029"
       transform="translate(-223.54598,-129.28644)"
       style="opacity:0.5;fill:#ff0000" />
    <g
       id="g5212"
       style="stroke:#ffffff;stroke-width:0.75"
       transform="translate(0.7188175,0.11980296)">
      <g
         id="g5210"
         transform="translate(27.794278,0.95842339)"
         style="stroke:#ffffff;stroke-width:0.75" />
    </g>
    <g
       id="g5442"
       transform="translate(-79.829655,329.54137)">
      <path
         style="opacity:1;fill:#33334c;fill-opacity:1;stroke:none;stroke-width:0.1273959;stroke-miterlimit:4;stroke-dasharray:0.25479175, 0.12739588;stroke-dashoffset:0;stroke-opacity:1"
         d="m -730.4064,217.51148 c -0.69401,0 -1.38808,0.20249 -1.91978,0.60616 l -29.84652,22.65753 c 0,0 13.84108,-3.7435 46.51378,-3.83517 32.67268,-0.0917 46.51378,3.57317 46.51378,3.57317 l -29.61655,-17.53484 c -1.36372,-0.80734 -3.55972,-0.80734 -4.92336,0 l -10.33623,6.12004 -14.46583,-10.98073 c -0.53178,-0.40367 -1.22531,-0.60616 -1.91929,-0.60616 z"
         id="path5371"
         inkscape:connector-curvature="0"
         sodipodi:nodetypes="scczcccccs" />
      <path
         style="opacity:1;fill:#248ccc;fill-opacity:1;stroke:none;stroke-width:0.12838016;stroke-miterlimit:4;stroke-dasharray:0.25676028, 0.12838015;stroke-dashoffset:0;stroke-opacity:1"
         d="m -715.56543,239.72945 c -0.14945,0 -0.29305,10e-4 -0.44183,0.002 l -11.01431,8.30026 13.03072,8.69715 12.56823,-9.26403 -11.55795,-7.72615 c -0.851,-0.005 -1.71064,-0.009 -2.58486,-0.009 z m -2.59622,0.0103 c -7.65761,0.0577 -14.36977,0.36596 -20.10265,0.78755 l 10.10636,6.74533 z m 7.53029,0.0217 10.30945,6.89157 8.38553,-6.1805 c -5.35265,-0.35298 -11.5938,-0.62321 -18.69498,-0.71107 z m 20.67522,0.85214 -9.22734,6.80062 12.99456,8.68681 17.51159,-12.95632 c 0,0 -7.34824,-1.51908 -21.27881,-2.53111 z m -50.37935,0.0744 c -14.49614,1.18127 -22.11751,3.03392 -22.11751,3.03392 l 18.65622,15.3355 14.55312,-10.96626 z m 40.0513,7.53752 -13.11083,9.66298 9.3493,6.0973 c 1.30932,0.85388 4.11394,2.28252 7.19905,0 l 9.55962,-7.07244 z m -27.82311,0.62374 -14.66422,11.05048 11.22516,9.22735 c 0.5105,0.42693 1.17691,0.64078 1.84329,0.64078 0.66635,0 1.33217,-0.21385 1.84279,-0.64078 l 13.37644,-11.18433 z"
         id="path5373"
         inkscape:connector-curvature="0" />
    </g>
  </g>
</svg>
